<svg xmlns="http://www.w3.org/2000/svg" viewBox="0 0 223.37 55.55"><defs><style>.cls-1{fill:#eceaf9;}.cls-2{isolation:isolate;}</style></defs><g id="Layer_2" data-name="Layer 2"><g id="Layer_2-2" data-name="Layer 2"><g id="Group_27" data-name="Group 27"><path id="Path_11" data-name="Path 11" class="cls-1" d="M0,15.09V55.55H29.36V51.17H5.22V15.09Z"/><rect id="Rectangle_26" data-name="Rectangle 26" class="cls-1" x="15.82" y="14.89" width="25.88" height="25.88"/><path id="Path_12" data-name="Path 12" class="cls-1" d="M28,0V4.38H52.11V40.47h5.22V0Z"/></g><g id="Group_28" data-name="Group 28"><rect id="Rectangle_2" data-name="Rectangle 2" class="cls-1" x="68" y="42" width="154" height="8"/></g><g class="cls-2"><path class="cls-1" d="M83.15,33H69.23V9h6.18V27.48h7.74Z"/><path class="cls-1" d="M101.3,33H95.12V26.52h-4V33H85v-20C85,10.08,86.48,9,89.21,9H101.3ZM95.12,21.09v-6.6h-4v6.6Z"/><path class="cls-1" d="M119.72,20.43c0,4.71-2.52,9-5.07,12.54h-6.12c-2.37-3.45-5.1-7.47-5.1-12.36V9h6.18V19.65a16.52,16.52,0,0,0,2.07,7.59,18.19,18.19,0,0,0,1.86-7.59V9h6.18Z"/><path class="cls-1" d="M128,33h-6.18V9H128Z"/><path class="cls-1" d="M144.56,33h-10c-2.73,0-4.11-1-4.11-3.78V12.81c0-2.76,1.38-3.81,4.11-3.81h10v5.49l-7.92,0v13h7.92Z"/><path class="cls-1" d="M162.11,14.49H157V33H150.8V14.49h-5.13V9h16.44Z"/><path class="cls-1" d="M180.11,29.19c0,2.67-1.38,3.78-4.11,3.78h-8.07c-2.58,0-4.11-1-4.11-3.78V12.81c0-2.55,1.38-3.81,4.11-3.81H176c2.61,0,4.11,1.08,4.11,3.81Zm-6.18-1.71v-13H170v13Z"/><path class="cls-1" d="M188.72,33h-6.18V9h6.18Z"/><path class="cls-1" d="M207,33h-6.18V24.9h-3.51V33h-6.18V9h11.64c2.73,0,4.23,1.08,4.23,3.93v6.15a2.86,2.86,0,0,1-2.22,3.09v.06c1.35.18,2.22,1,2.22,2.82Zm-6.18-13.53v-5h-3.51v5Z"/><path class="cls-1" d="M223.37,33H209.45V9h13.92v5.49h-7.74v3.66h7.74v5.46h-7.74v3.87h7.74Z"/></g></g></g></svg>